<mxfile modified="2024-05-16T19:10:57.491Z" host="app.diagrams.net" agent="Mozilla/5.0 (Windows NT 10.0; Win64; x64; rv:126.0) Gecko/20100101 Firefox/126.0" etag="CbaEB1cww3krbjr0NrjJ" version="24.4.2" type="device">
  <diagram id="l8hXMBHkgcEJcSW0mbfh" name="Page-1">
    <mxGraphModel dx="1050" dy="530" grid="1" gridSize="10" guides="1" tooltips="1" connect="1" arrows="1" fold="1" page="1" pageScale="1" pageWidth="1169" pageHeight="827" math="0" shadow="0">
      <root>
        <mxCell id="0" />
        <mxCell id="1" parent="0" />
        <mxCell id="Cf9bNUhkI0uGOW-w237f-9" value="Home&lt;br&gt;Assistant" style="dashed=0;strokeColor=#dddddd;shadow=1;strokeWidth=1;labelPosition=center;verticalLabelPosition=middle;align=left;verticalAlign=middle;spacingLeft=5;fontSize=12;whiteSpace=wrap;html=1;" parent="1" vertex="1">
          <mxGeometry x="469.5" y="220" width="100" height="44" as="geometry" />
        </mxCell>
        <mxCell id="Cf9bNUhkI0uGOW-w237f-10" value="&lt;div&gt;Korisnik&lt;/div&gt;&lt;div&gt;&lt;br&gt;&lt;/div&gt;" style="sketch=0;outlineConnect=0;fontColor=#232F3E;gradientColor=none;strokeColor=#232F3E;fillColor=#ffffff;dashed=0;verticalLabelPosition=bottom;verticalAlign=top;align=center;html=1;fontSize=12;fontStyle=0;aspect=fixed;shape=mxgraph.aws4.resourceIcon;resIcon=mxgraph.aws4.user;" parent="1" vertex="1">
          <mxGeometry x="630" y="40" width="60" height="60" as="geometry" />
        </mxCell>
        <mxCell id="Cf9bNUhkI0uGOW-w237f-14" value="&lt;div&gt;Sloj uređaja&lt;/div&gt;" style="text;html=1;align=center;verticalAlign=middle;resizable=0;points=[];autosize=1;strokeColor=none;fillColor=none;" parent="1" vertex="1">
          <mxGeometry x="700" y="474.75" width="80" height="30" as="geometry" />
        </mxCell>
        <mxCell id="Cf9bNUhkI0uGOW-w237f-15" value="&lt;b&gt;LOKALNI PROSTOR&lt;/b&gt;" style="text;html=1;align=center;verticalAlign=middle;resizable=0;points=[];autosize=1;strokeColor=none;fillColor=none;" parent="1" vertex="1">
          <mxGeometry x="370.5" y="55" width="140" height="30" as="geometry" />
        </mxCell>
        <mxCell id="Cf9bNUhkI0uGOW-w237f-18" value="" style="strokeColor=#6c8ebf;shadow=1;strokeWidth=1;rounded=1;absoluteArcSize=1;arcSize=2;opacity=40;fillColor=#dae8fc;" parent="1" vertex="1">
          <mxGeometry x="469.5" y="180" width="100" height="40" as="geometry" />
        </mxCell>
        <mxCell id="Cf9bNUhkI0uGOW-w237f-19" value="&lt;div&gt;Korisničko&lt;br&gt;sučelje&lt;br&gt;&lt;/div&gt;" style="sketch=0;dashed=0;connectable=0;html=1;fillColor=#757575;strokeColor=none;shape=mxgraph.gcp2.frontend_platform_services;part=1;labelPosition=right;verticalLabelPosition=middle;align=left;verticalAlign=middle;spacingLeft=5;fontSize=12;" parent="Cf9bNUhkI0uGOW-w237f-18" vertex="1">
          <mxGeometry y="0.5" width="32" height="32" relative="1" as="geometry">
            <mxPoint x="5" y="-16" as="offset" />
          </mxGeometry>
        </mxCell>
        <mxCell id="Cf9bNUhkI0uGOW-w237f-20" value="" style="endArrow=classic;startArrow=classic;html=1;rounded=0;exitX=0.5;exitY=0;exitDx=0;exitDy=0;" parent="1" source="Cf9bNUhkI0uGOW-w237f-18" target="Cf9bNUhkI0uGOW-w237f-10" edge="1">
          <mxGeometry width="50" height="50" relative="1" as="geometry">
            <mxPoint x="520" y="160" as="sourcePoint" />
            <mxPoint x="580" y="240" as="targetPoint" />
            <Array as="points">
              <mxPoint x="520" y="70" />
            </Array>
          </mxGeometry>
        </mxCell>
        <mxCell id="Cf9bNUhkI0uGOW-w237f-22" value="" style="editableCssRules=.*;html=1;shape=image;verticalLabelPosition=bottom;labelBackgroundColor=#ffffff;verticalAlign=top;aspect=fixed;imageAspect=0;image=data:image/svg+xml,PHN2ZyB4bWxucz0iaHR0cDovL3d3dy53My5vcmcvMjAwMC9zdmciIHhtbG5zOnY9Imh0dHBzOi8vdmVjdGEuaW8vbmFubyIgd2lkdGg9IjE5LjcwNjUzMTUyNDY1ODIwMyIgaGVpZ2h0PSIxOS45ODM4MjE4Njg4OTY0ODQiIGZpbGwtcnVsZT0iZXZlbm9kZCIgdmlld0JveD0iLTAuMDAwMjA5NTQ2OTY4MTA4MDQzMDcgMC4wMDAxNzcyNDA4Mjg2MzQyMzk3MyAxOS43MDY1MzE1MjQ2NTgyMDMgMTkuOTgzODIxODY4ODk2NDg0Ij4mI3hhOwk8c3R5bGUgdHlwZT0idGV4dC9jc3MiPiYjeGE7CS5zdDB7ZmlsbDojNDI4NWY0O30mI3hhOwkuc3Qxe2ZpbGw6IzY2OWRmNjt9JiN4YTsJPC9zdHlsZT4mI3hhOwk8cGF0aCBjbGFzcz0ic3QwIiBkPSJNMTAuMzQ1IDEwLjM5NnYtNC40M2gwYTEuMTQgMS4xNCAwIDAgMC0uNS0yLjE2NCAxLjE0IDEuMTQgMCAwIDAtLjUgMi4xNjR2NC40MmgtNC4yN3YtMi44MmExLjE0IDEuMTQgMCAwIDAtLjUzLTIuMTUgMS4xNCAxLjE0IDAgMCAwLS41MiAyLjE1djIuODNoLS4yMmEzLjgyIDMuODIgMCAwIDEtMi43MjItNi40ODUgMy44MiAzLjgyIDAgMCAxIDQuMTIyLS44OTUgNS4yMiA1LjIyIDAgMCAxIDkuNDQtLjA1IDQgNCAwIDAgMSAxLjIzLS4yaDBhMy44MyAzLjgzIDAgMSAxIDAgNy42NmgtLjI1di0yLjg2YTEuMTQgMS4xNCAwIDAgMC0uNTMtMi4xNDkgMS4xNCAxLjE0IDAgMCAwLS41MyAyLjE0OXYyLjgzeiIvPiYjeGE7CTxwYXRoIGNsYXNzPSJzdDEiIGQ9Ik01LjA3NSAxMy4zNTZhMiAyIDAgMCAxIDEuNTQgMiAyLjA3IDIuMDcgMCAwIDEtNC4xMS4zNTQgMi4wNyAyLjA3IDAgMCAxIDEuNTItMi4zNTR2LTIuOTZoMXptLS41MyAzYTEgMSAwIDEgMCAwLTIgMSAxIDAgMSAwIDAgMnptMTEuMDgtM2EyLjA3IDIuMDcgMCAwIDEtLjUzIDQuMDcxIDIuMDcgMi4wNyAwIDAgMS0uNTMtNC4wNzF2LTIuOTVoMS4wNnptLS41MyAzYTEgMSAwIDAgMCAuMzktMS45NCAxIDEgMCAwIDAtMS4yNjggMS4zMDcgMSAxIDAgMCAwIC44NzguNjMzem0tNC43NS0uNDNoMGEyLjA2IDIuMDYgMCAwIDEtLjUgNC4wNTggMi4wNiAyLjA2IDAgMCAxLS41LTQuMDU4di01LjVoMS4wNnptLS41NCAzYTEgMSAwIDAgMCAuNTUtMS44MzIgMSAxIDAgMCAwLTEuNDggMS4yMTIgMSAxIDAgMCAwIC45My42eiIvPiYjeGE7PC9zdmc+;" parent="1" vertex="1">
          <mxGeometry x="534.5" y="227" width="30" height="30" as="geometry" />
        </mxCell>
        <mxCell id="Cf9bNUhkI0uGOW-w237f-23" value="" style="rounded=1;whiteSpace=wrap;html=1;opacity=20;fillColor=#008a00;fontColor=#ffffff;strokeColor=default;strokeWidth=2;" parent="1" vertex="1">
          <mxGeometry x="340" y="30" width="470" height="530" as="geometry" />
        </mxCell>
        <mxCell id="Cf9bNUhkI0uGOW-w237f-25" value="" style="shape=curlyBracket;whiteSpace=wrap;html=1;rounded=1;flipH=1;labelPosition=right;verticalLabelPosition=middle;align=left;verticalAlign=middle;" parent="1" vertex="1">
          <mxGeometry x="680" y="439.63" width="15" height="100.25" as="geometry" />
        </mxCell>
        <mxCell id="Cf9bNUhkI0uGOW-w237f-27" value="" style="strokeColor=#dddddd;shadow=1;strokeWidth=1;rounded=1;absoluteArcSize=1;arcSize=2;" parent="1" vertex="1">
          <mxGeometry x="449.5" y="330" width="140" height="44" as="geometry" />
        </mxCell>
        <mxCell id="Cf9bNUhkI0uGOW-w237f-28" value="Gateway" style="sketch=0;dashed=0;connectable=0;html=1;fillColor=#757575;strokeColor=none;shape=mxgraph.gcp2.gateway;part=1;labelPosition=right;verticalLabelPosition=middle;align=left;verticalAlign=middle;spacingLeft=5;fontSize=12;" parent="Cf9bNUhkI0uGOW-w237f-27" vertex="1">
          <mxGeometry y="0.5" width="32" height="32" relative="1" as="geometry">
            <mxPoint x="5" y="-16" as="offset" />
          </mxGeometry>
        </mxCell>
        <mxCell id="Cf9bNUhkI0uGOW-w237f-26" value="" style="sketch=0;pointerEvents=1;shadow=0;dashed=0;html=1;strokeColor=none;fillColor=#434445;aspect=fixed;labelPosition=center;verticalLabelPosition=bottom;verticalAlign=top;align=center;outlineConnect=0;shape=mxgraph.vvd.wi_fi;" parent="Cf9bNUhkI0uGOW-w237f-27" vertex="1">
          <mxGeometry x="100.00333333333333" y="8" width="28" height="28" as="geometry" />
        </mxCell>
        <mxCell id="Cf9bNUhkI0uGOW-w237f-30" value="" style="strokeColor=#dddddd;shadow=1;strokeWidth=1;rounded=1;absoluteArcSize=1;arcSize=2;" parent="1" vertex="1">
          <mxGeometry x="449.5" y="467.75" width="140" height="44" as="geometry" />
        </mxCell>
        <mxCell id="Cf9bNUhkI0uGOW-w237f-31" value="ESP32" style="sketch=0;dashed=0;connectable=0;html=1;fillColor=#757575;strokeColor=none;shape=mxgraph.gcp2.gateway;part=1;labelPosition=right;verticalLabelPosition=middle;align=left;verticalAlign=middle;spacingLeft=5;fontSize=12;" parent="Cf9bNUhkI0uGOW-w237f-30" vertex="1">
          <mxGeometry y="0.5" width="32" height="32" relative="1" as="geometry">
            <mxPoint x="5" y="-16" as="offset" />
          </mxGeometry>
        </mxCell>
        <mxCell id="Cf9bNUhkI0uGOW-w237f-2" value="" style="outlineConnect=0;dashed=0;verticalLabelPosition=bottom;verticalAlign=top;align=center;html=1;shape=mxgraph.aws3.alexa_enabled_device;fillColor=#5294CF;gradientColor=none;" parent="Cf9bNUhkI0uGOW-w237f-30" vertex="1">
          <mxGeometry y="2.25" width="39.5" height="39.5" as="geometry" />
        </mxCell>
        <mxCell id="Cf9bNUhkI0uGOW-w237f-29" value="" style="dashed=0;outlineConnect=0;html=1;align=center;labelPosition=center;verticalLabelPosition=bottom;verticalAlign=top;shape=mxgraph.weblogos.arduino;fillColor=#36868D;strokeColor=none" parent="Cf9bNUhkI0uGOW-w237f-30" vertex="1">
          <mxGeometry x="90" y="11" width="47.4" height="22" as="geometry" />
        </mxCell>
        <mxCell id="Cf9bNUhkI0uGOW-w237f-34" value="" style="endArrow=none;dashed=1;html=1;rounded=0;exitX=0.498;exitY=-0.127;exitDx=0;exitDy=0;exitPerimeter=0;entryX=0.5;entryY=1;entryDx=0;entryDy=0;" parent="1" source="Cf9bNUhkI0uGOW-w237f-30" target="Cf9bNUhkI0uGOW-w237f-27" edge="1">
          <mxGeometry width="50" height="50" relative="1" as="geometry">
            <mxPoint x="500" y="390" as="sourcePoint" />
            <mxPoint x="550" y="340" as="targetPoint" />
          </mxGeometry>
        </mxCell>
        <mxCell id="Cf9bNUhkI0uGOW-w237f-35" value="" style="outlineConnect=0;dashed=0;verticalLabelPosition=bottom;verticalAlign=top;align=center;html=1;shape=mxgraph.aws3.mqtt_protocol;fillColor=#5294CF;gradientColor=none;" parent="1" vertex="1">
          <mxGeometry x="640" y="227" width="40" height="37" as="geometry" />
        </mxCell>
        <mxCell id="Cf9bNUhkI0uGOW-w237f-37" value="" style="whiteSpace=wrap;html=1;fillColor=#f5f5f5;fontColor=#333333;strokeColor=#666666;strokeWidth=2;opacity=30;" parent="1" vertex="1">
          <mxGeometry x="375" y="160" width="315" height="130" as="geometry" />
        </mxCell>
        <object label="" id="Cf9bNUhkI0uGOW-w237f-39">
          <mxCell style="endArrow=classic;startArrow=classic;html=1;rounded=0;" parent="1" target="Cf9bNUhkI0uGOW-w237f-35" edge="1">
            <mxGeometry width="50" height="50" relative="1" as="geometry">
              <mxPoint x="570" y="246" as="sourcePoint" />
              <mxPoint x="550" y="280" as="targetPoint" />
            </mxGeometry>
          </mxCell>
        </object>
        <mxCell id="Cf9bNUhkI0uGOW-w237f-40" value="&lt;div&gt;&lt;b&gt;Raspberry Pi&lt;/b&gt;&lt;/div&gt;" style="text;html=1;align=center;verticalAlign=middle;resizable=0;points=[];autosize=1;strokeColor=none;fillColor=none;" parent="1" vertex="1">
          <mxGeometry x="589.5" y="160" width="100" height="30" as="geometry" />
        </mxCell>
        <mxCell id="Cf9bNUhkI0uGOW-w237f-42" value="" style="endArrow=classic;startArrow=classic;html=1;rounded=0;entryX=0.5;entryY=1;entryDx=0;entryDy=0;exitX=0.5;exitY=0;exitDx=0;exitDy=0;" parent="1" source="Cf9bNUhkI0uGOW-w237f-27" target="Cf9bNUhkI0uGOW-w237f-9" edge="1">
          <mxGeometry width="50" height="50" relative="1" as="geometry">
            <mxPoint x="500" y="330" as="sourcePoint" />
            <mxPoint x="550" y="280" as="targetPoint" />
          </mxGeometry>
        </mxCell>
        <mxCell id="Cf9bNUhkI0uGOW-w237f-43" value="&lt;font style=&quot;font-size: 10px;&quot;&gt;HTTP&lt;/font&gt;" style="text;html=1;align=center;verticalAlign=middle;resizable=0;points=[];autosize=1;strokeColor=none;fillColor=none;" parent="1" vertex="1">
          <mxGeometry x="545" y="40" width="50" height="30" as="geometry" />
        </mxCell>
        <mxCell id="Cf9bNUhkI0uGOW-w237f-44" value="&lt;font style=&quot;font-size: 10px;&quot;&gt;MQTT&lt;/font&gt;" style="text;html=1;align=center;verticalAlign=middle;resizable=0;points=[];autosize=1;strokeColor=none;fillColor=none;" parent="1" vertex="1">
          <mxGeometry x="580" y="220" width="50" height="30" as="geometry" />
        </mxCell>
        <mxCell id="Cf9bNUhkI0uGOW-w237f-45" value="&lt;font style=&quot;font-size: 10px;&quot;&gt;MQTT&lt;/font&gt;" style="text;html=1;align=center;verticalAlign=middle;resizable=0;points=[];autosize=1;strokeColor=none;fillColor=none;rotation=-90;" parent="1" vertex="1">
          <mxGeometry x="484.5" y="280" width="50" height="30" as="geometry" />
        </mxCell>
        <mxCell id="Cf9bNUhkI0uGOW-w237f-46" value="&lt;font style=&quot;font-size: 10px;&quot;&gt;MQTT&lt;/font&gt;" style="text;html=1;align=center;verticalAlign=middle;resizable=0;points=[];autosize=1;strokeColor=none;fillColor=none;rotation=-90;" parent="1" vertex="1">
          <mxGeometry x="484.5" y="409.63" width="50" height="30" as="geometry" />
        </mxCell>
        <mxCell id="Cf9bNUhkI0uGOW-w237f-47" value="" style="shape=image;html=1;verticalAlign=top;verticalLabelPosition=bottom;labelBackgroundColor=#ffffff;imageAspect=0;aspect=fixed;image=https://cdn1.iconfinder.com/data/icons/unicons-line-vol-3/24/docker-128.png" parent="1" vertex="1">
          <mxGeometry x="510.5" y="226" width="18" height="18" as="geometry" />
        </mxCell>
        <mxCell id="Cf9bNUhkI0uGOW-w237f-48" value="" style="sketch=0;pointerEvents=1;shadow=0;dashed=0;html=1;strokeColor=none;fillColor=#DF8C42;labelPosition=center;verticalLabelPosition=bottom;verticalAlign=top;align=center;outlineConnect=0;shape=mxgraph.veeam2.linux;" parent="1" vertex="1">
          <mxGeometry x="375" y="160" width="24" height="24" as="geometry" />
        </mxCell>
        <mxCell id="YbLUnJhZUKd1H4353pqz-1" value="" style="shape=curlyBracket;whiteSpace=wrap;html=1;rounded=1;flipH=1;labelPosition=right;verticalLabelPosition=middle;align=left;verticalAlign=middle;" vertex="1" parent="1">
          <mxGeometry x="680" y="322.13" width="20" height="59.75" as="geometry" />
        </mxCell>
        <mxCell id="YbLUnJhZUKd1H4353pqz-2" value="Mrežni sloj" style="text;html=1;align=center;verticalAlign=middle;resizable=0;points=[];autosize=1;strokeColor=none;fillColor=none;" vertex="1" parent="1">
          <mxGeometry x="700" y="337.01" width="80" height="30" as="geometry" />
        </mxCell>
        <mxCell id="YbLUnJhZUKd1H4353pqz-3" value="" style="shape=curlyBracket;whiteSpace=wrap;html=1;rounded=1;flipH=1;labelPosition=right;verticalLabelPosition=middle;align=left;verticalAlign=middle;" vertex="1" parent="1">
          <mxGeometry x="690" y="226" width="20" height="59.75" as="geometry" />
        </mxCell>
        <mxCell id="YbLUnJhZUKd1H4353pqz-4" value="Upravljački sloj&lt;br&gt;Podatkovni sloj" style="text;html=1;align=center;verticalAlign=middle;resizable=0;points=[];autosize=1;strokeColor=none;fillColor=none;" vertex="1" parent="1">
          <mxGeometry x="710" y="235.88" width="100" height="40" as="geometry" />
        </mxCell>
        <mxCell id="YbLUnJhZUKd1H4353pqz-5" value="" style="shape=curlyBracket;whiteSpace=wrap;html=1;rounded=1;flipH=1;labelPosition=right;verticalLabelPosition=middle;align=left;verticalAlign=middle;" vertex="1" parent="1">
          <mxGeometry x="689.5" y="179" width="20" height="47" as="geometry" />
        </mxCell>
        <mxCell id="YbLUnJhZUKd1H4353pqz-6" value="Aplikacijski sloj" style="text;html=1;align=center;verticalAlign=middle;resizable=0;points=[];autosize=1;strokeColor=none;fillColor=none;" vertex="1" parent="1">
          <mxGeometry x="709.75" y="189" width="100" height="30" as="geometry" />
        </mxCell>
      </root>
    </mxGraphModel>
  </diagram>
</mxfile>
